<?xml version="1.0" encoding="utf-8"?>
<svg viewBox="0 0 512 512" xmlns="http://www.w3.org/2000/svg">
  <g transform="matrix(-0.09882500022649764, 0, 0, -0.10000000149011612, 510.03303521969974, 512.0000152587891)" fill="#000000" stroke="none" style="">
    <path d="M3270 4610 l0 -430 -1635 0 -1635 0 0 -1303 0 -1302 750 -750 750 -750 0 703 0 702 885 0 885 0 0 -426 c0 -246 4 -424 9 -422 5 2 421 498 924 1102 l916 1099 -22 28 c-101 128 -1814 2178 -1819 2178 -5 1 -8 -192 -8 -429z m875 -1075 c307 -368 564 -677 571 -686 12 -13 -60 -104 -556 -700 -314 -376 -575 -685 -580 -687 -6 -2 -10 58 -10 157 l0 161 -1635 0 -1635 0 0 1050 0 1050 1635 0 1635 0 0 166 c0 92 4 164 9 162 5 -1 260 -304 566 -673z m-2945 -2395 c0 -187 -1 -340 -3 -340 -1 0 -155 153 -342 340 l-340 340 343 0 342 0 0 -340z"/>
    <path d="M 2011.597 2167.589 C 2009.787 2249.589 2005.262 2272.589 1989.876 2294.589 C 1950.958 2352.589 1929.237 2362.589 1832.396 2366.589 L 1741.89 2370.589 L 1741.89 2519.589 L 1741.89 2668.589 L 1807.959 2668.589 C 1871.313 2668.589 1979.92 2654.589 2005.262 2643.589 C 2016.122 2639.589 2017.933 2708.589 2015.217 3103.589 L 2013.407 3568.589 L 2149.166 3568.589 L 2284.924 3568.589 L 2284.924 2818.589 L 2284.924 2068.589 L 2150.071 2068.589 L 2015.217 2068.589 L 2011.597 2167.589 Z" style="transform-box: fill-box; transform-origin: 50% 50%;" transform="matrix(-1, 0, 0, -1, 0.000596, 0.000202)"/>
  </g>
</svg>